#!OML:ASF F:\VICON\USERDATA\INSTALL\Justin_Nancy\Justin_Nancy.ASF
:FULLY-SPECIFIED
:DEGREES
65
root 0.478408 16.9307 -7.1 7.21271 -3.78773 -2.79809
lowerback 13.3665 -0.607134 2.4001
upperback 1.39277 -0.141488 4.89516
thorax -6.02943 -0.0728423 3.85464
lowerneck -23.5799 -2.87525 -7.63442
upperneck 10.5385 -2.03434 3.44155
head 7.13726 -0.969401 2.10122
rclavicle 7.95139e-016 -3.81667e-014
rhumerus -40.0311 14.2401 -90.7164
rradius 113.754
rwrist -8.03468
rhand -14.3506 25.7331
rfingers 7.12502
rthumb 11.791 -3.91503
lclavicle 7.95139e-016 -3.81667e-014
lhumerus -49.6656 -2.91852 91.0975
lradius 94.6502
lwrist 27.9937
lhand -19.3232 10.7188
lfingers 7.12502
lthumb 6.99314 40.5833
rfemur -20.3397 2.49812 29.9545
rtibia 41.6098
rfoot -19.1411 -13.3413
rtoes -8.75889
lfemur -21.3335 4.46995 -12.2993
ltibia 100.121
lfoot 14.0163 -9.59323
ltoes -2.51853
66
root 0.47398 16.9351 -6.719 7.58401 -3.7147 -2.65171
lowerback 13.2756 -0.330465 2.24548
upperback 1.14059 0.211125 4.87421
thorax -6.26504 0.105652 3.85901
lowerneck -23.4145 -3.0178 -7.75283
upperneck 10.6884 -2.22741 3.58271
head 7.17532 -1.05629 2.14355
rclavicle -6.36111e-015 -1.11319e-014
rhumerus -39.5002 13.7932 -90.6275
rradius 114.884
rwrist -7.80066
rhand -14.0939 25.9555
rfingers 7.12502
rthumb 12.0386 -3.67827
lclavicle -6.36111e-015 -1.11319e-014
lhumerus -50.8532 -3.1593 91.4951
lradius 95.2256
lwrist 27.4889
lhand -19.1918 9.4184
lfingers 7.12502
lthumb 7.11999 39.2786
rfemur -19.0113 1.93945 29.7242
rtibia 40.9647
rfoot -19.446 -13.2099
rtoes -9.50297
lfemur -24.4463 5.12424 -12.3349
ltibia 101.625
lfoot 14.1739 -9.61884
ltoes -0.621975
67
root 0.474675 16.9474 -6.33756 7.88382 -3.68874 -2.8016
lowerback 13.2661 -0.0273978 2.44334
upperback 0.9266 0.656107 4.89666
thorax -6.50884 0.319622 3.69194
lowerneck -23.2541 -3.2384 -7.95311
upperneck 10.8959 -2.5146 3.80407
head 7.24162 -1.18464 2.21376
rclavicle 3.97569e-015 -1.90833e-014
rhumerus -39.1345 13.4838 -90.6014
rradius 116.2
rwrist -7.89235
rhand -14.1974 26.3476
rfingers 7.12502
rthumb 11.9387 -3.29193
lclavicle 3.97569e-015 -1.90833e-014
lhumerus -51.8771 -3.50673 91.9519
lradius 95.9519
lwrist 27.4661
lhand -18.945 9.3808
lfingers 7.12502
lthumb 7.35819 39.2328
rfemur -17.3254 1.6394 29.7586
rtibia 39.9106
rfoot -19.5383 -12.8783
rtoes -8.46612
lfemur -27.2216 5.88976 -12.0783
ltibia 102.756
lfoot 13.1301 -9.49082
ltoes -2.60442
68
root 0.475968 16.9737 -5.95382 8.08831 -3.62992 -3.17754
lowerback 13.1543 0.280236 2.97002
upperback 0.922503 1.136 4.90188
thorax -6.46335 0.538983 3.30758
lowerneck -23.3626 -3.54321 -8.03509
upperneck 11.0001 -2.92482 4.00536
head 7.32281 -1.36439 2.24042
rclavicle 1.98785e-015 -1.74931e-014
rhumerus -38.5655 13.0022 -90.5959
rradius 117.607
rwrist -8.18863
rhand -14.0802 27.4367
rfingers 7.12502
rthumb 12.0517 -2.19623
lclavicle 1.98785e-015 -1.74931e-014
lhumerus -52.3192 -4.10376 92.4063
lradius 96.5636
lwrist 27.7714
lhand -19.3543 9.89969
lfingers 7.12502
lthumb 6.96316 39.7652
rfemur -15.3649 1.5482 30.0373
rtibia 38.7533
rfoot -19.7821 -12.645
rtoes -10.0691
lfemur -29.8087 6.72475 -11.6543
ltibia 103.467
lfoot 11.6049 -9.5995
ltoes -5.32334
69
root 0.474205 17.0113 -5.55925 8.17786 -3.63351 -3.71668
lowerback 13.1133 0.598587 3.59758
upperback 0.923466 1.65048 4.94947
thorax -6.44276 0.772822 2.9075
lowerneck -23.6234 -3.83341 -8.14696
upperneck 11.2544 -3.31182 4.29828
head 7.48051 -1.52453 2.30439
rclavicle -9.14409e-015 -3.49861e-014
rhumerus -37.9911 12.4408 -90.6616
rradius 118.868
rwrist -8.75984
rhand -13.7303 27.5278
rfingers 7.12502
rthumb 12.3891 -2.08508
lclavicle -9.14409e-015 -3.49861e-014
lhumerus -53.0085 -4.60944 92.801
lradius 97.5113
lwrist 28.4781
lhand -18.854 10.2054
lfingers 7.12502
lthumb 7.44605 40.0543
rfemur -13.1996 1.65491 30.5113
rtibia 37.5758
rfoot -19.5508 -12.463
rtoes -14.8796
lfemur -32.0991 7.60521 -11.1525
ltibia 103.748
lfoot 10.175 -9.7734
ltoes -5.96178
70
root 0.478681 17.0573 -5.15953 8.27664 -3.59722 -4.01576
lowerback 13.0268 0.948633 4.07505
upperback 0.869581 2.18045 4.93081
thorax -6.44742 1.01735 2.52118
lowerneck -23.5689 -4.11136 -8.30002
upperneck 11.2523 -3.69328 4.59199
head 7.50478 -1.6842 2.37668
rclavicle 0 7.95139e-015
rhumerus -37.6699 11.9013 -90.6634
rradius 120.16
rwrist -9.68738
rhand -13.5327 26.9442
rfingers 7.12502
rthumb 12.5797 -2.65705
lclavicle 0 7.95139e-015
lhumerus -53.8527 -5.20314 93.2324
lradius 98.5944
lwrist 29.0109
lhand -17.6444 10.0709
lfingers 7.12502
lthumb 8.61353 39.8752
rfemur -11.0269 1.83935 30.7008
rtibia 36.3262
rfoot -18.64 -11.9272
rtoes -17.0955
lfemur -34.0505 8.19994 -11.1228
ltibia 103.586
lfoot 8.44167 -9.58072
ltoes -6.65558
71
root 0.49305 17.0793 -4.77459 8.46189 -3.46252 -4.29806
lowerback 12.7894 1.24453 4.6021
upperback 0.793097 2.63459 4.91167
thorax -6.3794 1.22415 2.1253
lowerneck -23.1826 -4.30319 -8.47908
upperneck 10.9836 -3.9636 4.82298
head 7.38063 -1.80065 2.44898
rclavicle -7.55382e-015 -3.49861e-014
rhumerus -37.5229 11.6122 -90.7304
rradius 121.502
rwrist -10.7415
rhand -14.1506 27.3969
rfingers 7.12502
rthumb 11.9839 -2.24004
lclavicle -7.55382e-015 -3.49861e-014
lhumerus -54.5452 -5.70308 93.7236
lradius 99.4065
lwrist 29.1157
lhand -17.0516 9.65008
lfingers 7.12502
lthumb 9.18553 39.43
rfemur -9.16092 1.98031 30.8679
rtibia 35.1579
rfoot -17.6375 -11.2947
rtoes -19.1991
lfemur -36.0969 8.58494 -11.2293
ltibia 103.291
lfoot 6.53493 -9.31597
ltoes -9.15888
72
root 0.503077 17.1643 -4.36246 8.7206 -3.46319 -4.74505
lowerback 12.5979 1.56905 5.29765
upperback 0.564031 3.16116 4.85272
thorax -6.47974 1.45642 1.58304
lowerneck -22.7902 -4.49773 -8.67671
upperneck 10.9753 -4.27225 5.24341
head 7.35168 -1.92074 2.58377
rclavicle -2.18663e-014 6.36111e-015
rhumerus -37.5238 11.3191 -90.9678
rradius 122.622
rwrist -11.4632
rhand -14.9032 27.8162
rfingers 7.12502
rthumb 11.2581 -1.86173
lclavicle -2.18663e-014 6.36111e-015
lhumerus -55.4983 -6.15572 94.1304
lradius 100.185
lwrist 28.9696
lhand -17.2309 10.4553
lfingers 7.12502
lthumb 9.01257 40.2428
rfemur -7.366 2.32879 31.1792
rtibia 33.9995
rfoot -16.4408 -10.6924
rtoes -21.0272
lfemur -37.987 9.0667 -11.2841
ltibia 102.246
lfoot 5.13375 -9.05875
ltoes -10.0472
73
root 0.5137 17.2743 -3.9311 8.84361 -3.48109 -4.83629
lowerback 12.3045 1.88032 5.65236
upperback 0.487996 3.59289 4.70245
thorax -6.36105 1.65609 1.15886
lowerneck -22.9507 -4.72217 -8.67465
upperneck 11.3249 -4.60486 5.43684
head 7.52303 -2.05998 2.60275
rclavicle -4.77083e-015 -4.6118e-014
rhumerus -37.2491 11.1334 -91.0785
rradius 123.485
rwrist -11.9
rhand -14.856 27.5393
rfingers 7.12502
rthumb 11.3036 -2.13613
lclavicle -4.77083e-015 -4.6118e-014
lhumerus -56.2722 -6.52515 94.423
lradius 100.785
lwrist 28.8285
lhand -17.3904 10.7401
lfingers 7.12502
lthumb 8.85866 40.5342
rfemur -5.38791 2.58688 31.0541
rtibia 32.564
rfoot -14.3189 -9.84073
rtoes -20.5078
lfemur -39.5205 9.19816 -11.884
ltibia 100.56
lfoot 4.68055 -8.22671
ltoes -6.21714
74
root 0.530126 17.3698 -3.50824 8.89895 -3.27728 -4.84365
lowerback 12.0357 2.0908 6.02051
upperback 0.462491 3.889 4.54745
thorax -6.19662 1.79125 0.750096
lowerneck -23.1351 -4.9103 -8.63886
upperneck 11.4808 -4.87016 5.50588
head 7.62502 -2.17552 2.58227
rclavicle 4.77083e-015 1.43125e-014
rhumerus -36.9627 10.9733 -91.1737
rradius 124.063
rwrist -12.0254
rhand -14.6336 27.8736
rfingers 7.12502
rthumb 11.5181 -1.78994
lclavicle 4.77083e-015 1.43125e-014
lhumerus -56.8313 -6.62484 94.6675
lradius 101.164
lwrist 28.828
lhand -16.0639 9.7266
lfingers 7.12502
lthumb 10.1385 39.4623
rfemur -3.49536 2.65779 30.8522
rtibia 31.0565
rfoot -11.5805 -8.84356
rtoes -19.9412
lfemur -40.4263 8.98957 -12.4895
ltibia 98.5907
lfoot 2.19142 -7.4484
ltoes -11.9146
75
root 0.544116 17.5254 -3.06084 8.96517 -2.87084 -4.956
lowerback 11.8946 2.20267 6.49789
upperback 0.308159 4.09616 4.47171
thorax -6.23844 1.87425 0.375441
lowerneck -23.0315 -4.99379 -8.67213
upperneck 11.5704 -4.99833 5.5803
head 7.65092 -2.2326 2.59612
rclavicle 2.8625e-014 3.18055e-014
rhumerus -37.0934 10.869 -91.3359
rradius 124.531
rwrist -11.5188
rhand -14.5475 28.7501
rfingers 7.12502
rthumb 11.6012 -0.908769
lclavicle 2.8625e-014 3.18055e-014
lhumerus -57.591 -6.55478 94.9116
lradius 101.529
lwrist 29.0175
lhand -14.9811 9.18619
lfingers 7.12502
lthumb 11.1829 38.8682
rfemur -1.56757 2.4637 30.7725
rtibia 29.4269
rfoot -8.43754 -7.69693
rtoes -21.075
lfemur -42.4245 8.38356 -13.2067
ltibia 95.7719
lfoot 3.24601 -6.72108
ltoes -10.8907
